<svg width="24" height="24" viewBox="0 0 24 24" fill="none" xmlns="http://www.w3.org/2000/svg">
<g clip-path="url(#clip0_251_58)">
<path d="M21.4142 9.79053H12.3766C10.9508 9.79053 9.79083 10.9505 9.79083 12.3763V17.2865L7.44928 18.959C7.26453 19.0908 7.15485 19.304 7.15485 19.531C7.15485 19.7582 7.26453 19.9714 7.44928 20.1032L9.81903 21.7958C10.0042 23.0413 11.0806 23.9999 12.3766 23.9999H21.4142C22.84 23.9999 24 22.8399 24 21.4139V12.3763C24 10.9505 22.84 9.79053 21.4142 9.79053ZM18.3754 19.6705C18.2097 19.6705 18.0817 19.618 18.0441 19.4748L17.7578 18.473H16.0329L15.7469 19.4748C15.7092 19.618 15.5812 19.6705 15.4155 19.6705C15.1518 19.6705 14.7979 19.505 14.7979 19.264C14.7979 19.2488 14.8054 19.2188 14.8129 19.1886L16.2665 14.4513C16.3343 14.2253 16.613 14.1197 16.8917 14.1197C17.1779 14.1197 17.4565 14.2253 17.5243 14.4513L18.978 19.1886C18.9855 19.2188 18.993 19.2413 18.993 19.264C18.993 19.4973 18.639 19.6705 18.3754 19.6705Z" fill="#EFF6FD"/>
<path d="M16.2363 17.7047H17.547L16.8915 15.3926L16.2363 17.7047Z" fill="#EFF6FD"/>
<path d="M8.38458 12.3765C8.38458 11.4324 8.71472 10.5645 9.26459 9.88019C8.4624 9.88019 7.71808 9.62915 7.10449 9.2027C6.49091 9.62933 5.74658 9.88019 4.94421 9.88019C4.7254 9.88019 4.54779 9.70258 4.54779 9.48358C4.54779 9.26459 4.7254 9.08716 4.94421 9.08716C5.50616 9.08716 6.03204 8.93152 6.4823 8.66199C5.93921 8.07587 5.57812 7.31909 5.49078 6.48157H4.9444C4.7254 6.48157 4.54779 6.30414 4.54779 6.08514C4.54779 5.86615 4.7254 5.68854 4.9444 5.68854H6.70825V4.72577C6.70825 4.50659 6.88568 4.32916 7.10468 4.32916C7.32367 4.32916 7.5011 4.50659 7.5011 4.72577V5.68854H9.26495C9.48395 5.68854 9.66156 5.86615 9.66156 6.08514C9.66156 6.30414 9.48395 6.48157 9.26495 6.48157H8.71857C8.63123 7.31909 8.27014 8.07587 7.72705 8.66199C8.17712 8.93188 8.70319 9.08716 9.26495 9.08716C9.47424 9.08716 9.64526 9.24939 9.6601 9.45502C10.3733 8.79144 11.3282 8.3844 12.3768 8.3844H14.2094V6.71338L16.5509 5.04089C16.7355 4.90906 16.8452 4.69592 16.8452 4.46887C16.8452 4.24164 16.7355 4.0285 16.5509 3.89667L14.1812 2.20404C13.9958 0.958557 12.9194 0 11.6234 0H2.586C1.15997 0 0 1.15997 0 2.58582V11.6235C0 13.0494 1.15997 14.2094 2.586 14.2094H8.38458V12.3765Z" fill="#EFF6FD"/>
<path d="M7.10449 8.16669C7.53845 7.71643 7.83307 7.13177 7.91931 6.48193H6.28986C6.3761 7.13177 6.6709 7.71643 7.10449 8.16669Z" fill="#EFF6FD"/>
</g>
<defs>
<clipPath id="clip0_251_58">
<rect width="24" height="24" fill="white"/>
</clipPath>
</defs>
</svg>
